<svg width="795" height="795" viewBox="0 0 795 795" fill="none" xmlns="http://www.w3.org/2000/svg">
<path d="M368.877 0.894542C368.75 1.02349 342.509 1.28137 310.626 1.53926C250.663 1.99056 217.639 2.69974 204.455 3.9247C188.609 5.34307 166.17 10.0495 152.162 14.9493C138.978 19.5268 124.716 27.4568 118.314 33.7105C116.793 35.1933 112.102 39.5774 107.919 43.3812C68.9367 78.9694 42.8218 118.813 20.827 176.644C16.3267 188.377 3.90311 225.9 1.68461 234.475L0.0999756 240.47H12.6503H25.2006L32.0463 229.317C47.956 203.464 59.4288 187.862 75.402 170.261C92.4527 151.564 108.806 140.346 130.167 132.868C151.021 125.582 170.861 122.617 202.553 122.036L222.203 121.714L223.724 123.132C225.119 124.486 225.182 124.938 224.802 129.515C223.407 146.922 223.027 151.242 222.456 157.302C222.076 161.042 221.632 166.651 221.506 169.874C221.379 173.033 220.999 177.288 220.682 179.222C220.365 181.157 220.111 183.22 220.048 183.735C219.984 187.217 219.351 196.63 218.843 202.11C218.526 205.656 218.21 209.137 218.21 209.846C218.273 210.556 217.956 214.746 217.576 219.195C217.195 223.643 216.942 227.963 216.942 228.865C216.942 229.768 216.498 235.699 215.928 242.082C214.85 255.105 213.646 271.223 213.329 278.508C213.202 281.152 212.758 286.438 212.441 290.178C212.061 293.982 211.934 297.656 212.061 298.366C212.188 299.139 212.061 301.525 211.744 303.781C211.427 306.038 210.984 311.324 210.793 315.58C210.603 319.835 210.286 324.734 210.223 326.54C210.096 328.28 209.779 332.922 209.589 336.855C209.336 340.723 208.892 347.106 208.575 351.039C208.258 354.907 207.688 362.063 207.307 366.834C205.216 393.203 203.124 409.643 197.419 444.522C187.468 504.739 177.579 539.36 160.782 572.176C151.591 590.099 144.492 601.51 124.399 630.136C112.166 647.672 98.2842 668.174 98.2842 668.883C98.2842 669.141 97.4601 670.495 96.5094 671.978C90.4877 681.004 84.9098 695.51 82.6279 707.888C81.1701 716.14 81.1067 732.129 82.5645 738.834C86.5578 757.402 96.2558 771.715 111.975 782.417C125.286 791.443 138.851 795.311 155.331 794.731C173.713 794.086 184.679 788.929 199.701 773.585C214.787 758.24 227.464 737.223 235.894 713.691C239 704.858 240.014 701.634 244.007 687.064C256.875 640.387 271.644 560.764 282.736 478.37C289.328 429.565 293.385 393.525 295.73 364.578C298.519 329.892 308.787 186.766 312.084 136.607C312.591 129.257 313.161 123.003 313.415 122.552C313.732 122.036 339.529 121.843 411.535 121.843H509.213L508.832 126.163C508.642 128.612 507.881 134.866 507.121 140.217C500.022 191.601 491.845 270.127 484.936 352.973C483.858 365.738 482.591 381.082 482.02 387.143C480.182 407.516 480.435 548.708 482.337 574.884C486.584 631.296 493.493 670.108 504.966 702.086C508.198 711.047 516.248 727.23 521.129 734.644C538.623 761.077 561.886 780.032 588.254 789.122C598.966 792.861 604.354 793.7 619.06 794.086C643.907 794.731 657.471 791.959 676.677 782.353C691.953 774.681 706.849 763.785 719.906 750.568C746.401 723.942 763.135 692.737 775.622 646.769C781.453 625.429 789.567 585.006 790.834 571.273L791.278 566.696H780.883C775.178 566.696 769.473 566.889 768.206 567.083L765.924 567.469L763.832 577.269C759.015 600.027 754.324 611.439 744.436 624.398C733.28 639.097 716.039 650.315 698.545 654.248C674.459 659.728 650.309 656.956 627.617 646.253C603.657 634.906 585.909 612.148 576.655 580.879C572.852 568.243 571.077 558.766 570.316 547.677C569.365 532.848 569.365 440.332 570.38 419.701C573.485 355.939 576.781 314.612 583.881 249.819C585.592 234.152 592.248 179.609 594.593 162.46C595.607 154.852 597.192 142.925 598.142 136.027C599.093 129.128 600.107 123.068 600.424 122.617C600.931 122.036 620.644 121.843 695.059 121.843C746.718 121.843 789.884 121.65 790.961 121.456L792.926 121.069L793.306 82.5798C793.497 61.4332 793.75 36.0315 793.94 26.0384C794.257 10.6942 794.13 7.59957 793.306 5.60096C792.673 3.98917 791.912 3.21551 791.088 3.21551C790.454 3.21551 789.63 2.69974 789.25 2.05503C788.679 1.02349 777.904 0.959014 578.873 0.830071C463.512 0.765599 369.004 0.765599 368.877 0.894542Z" fill="#535353"/>
<path d="M480.119 425.503C480.119 429.952 480.182 431.757 480.309 429.501C480.435 427.309 480.435 423.698 480.309 421.442C480.182 419.25 480.119 421.055 480.119 425.503Z" fill="#535353"/>
<path d="M479.358 446.457C479.358 447.488 479.485 447.875 479.675 447.23C479.802 446.65 479.802 445.747 479.675 445.296C479.485 444.909 479.358 445.361 479.358 446.457Z" fill="#535353"/>
</svg>
